<svg width="540" height="963" viewBox="0 0 540 963" fill="none" xmlns="http://www.w3.org/2000/svg">
<path d="M237.108 606.893L306.601 538.724C320.747 524.848 342.144 525.144 354.388 539.405L389.429 580.22C401.673 594.48 400.116 617.294 385.971 631.169C371.826 645.045 350.428 644.749 338.185 630.488L325.306 615.488L281.435 658.523C267.281 672.407 245.893 672.103 233.649 657.843C221.406 643.583 222.954 620.777 237.108 606.893Z" fill="#F8F8F8" fill-opacity="0.07"/>
<path d="M540.292 783.297L457.902 864.117C443.762 877.987 421.792 876.982 408.819 861.871L333.2 773.794C320.226 758.683 321.171 735.2 335.311 721.33L417.701 640.51C431.832 626.647 453.809 627.645 466.783 642.757L542.402 730.833C555.375 745.944 554.423 769.435 540.292 783.297ZM439.076 720.33L407.88 750.931L436.526 784.297L467.722 753.695L439.076 720.33Z" fill="#F8F8F8" fill-opacity="0.07"/>
<path d="M294.324 496.807L211.934 577.627C197.795 591.497 176.357 591.112 164.057 576.785L92.3126 493.221C80.0122 478.894 81.4906 456.032 95.6304 442.162L178.02 361.342C192.151 347.48 213.595 347.856 225.895 362.183L297.64 445.747C309.94 460.074 308.456 482.945 294.324 496.807ZM196.983 438.352L165.787 468.953L192.97 500.615L224.166 470.013L196.983 438.352Z" fill="#F8F8F8" fill-opacity="0.07"/>
<path d="M562.359 233.88L479.943 314.725C465.819 328.58 444.38 328.197 432.08 313.871L360.339 230.31C348.038 215.983 349.515 193.115 363.639 179.26L388.741 154.637C402.865 140.782 424.306 141.167 436.607 155.495C448.777 169.669 447.462 192.154 433.786 206.067L460.968 237.727L492.215 207.076L490.938 205.589C478.638 191.263 480.118 168.397 494.243 154.542C508.367 140.687 529.807 141.069 542.107 155.396L565.663 182.833C577.963 197.159 576.483 220.025 562.359 233.88Z" fill="#F8F8F8" fill-opacity="0.07"/>
<path d="M649.543 333.835L585.338 396.817C571.623 410.271 550.824 409.919 538.886 396.014C526.949 382.11 528.402 359.929 542.117 346.475L606.322 283.493C620.037 270.04 640.837 270.392 652.774 284.296C664.712 298.2 663.258 320.381 649.543 333.835Z" fill="#F8F8F8" fill-opacity="0.07"/>
<path d="M643.24 630.039L614.5 658.231C600.214 672.246 577.722 670.917 564.268 655.247C550.814 639.576 551.503 615.51 565.79 601.496L568.653 598.687L543.489 569.377C530.035 553.706 530.724 529.64 545.01 515.626C559.296 501.612 581.787 502.94 595.242 518.611L644.76 576.288C658.214 591.959 657.526 616.025 643.24 630.039Z" fill="#F8F8F8" fill-opacity="0.07"/>
<path d="M480.547 578.862C486.664 572.861 495.418 569.899 504.391 570.941C513.203 571.765 522.104 576.737 528.49 584.175C535.036 591.799 538.908 601.704 539.087 611.354C539.471 630.65 523.458 646.013 505.804 644.003C496.839 642.971 487.939 637.999 481.393 630.374C475.007 622.936 471.135 613.031 471.107 603.59C470.919 593.931 474.262 585.027 480.547 578.862Z" fill="#F8F8F8" fill-opacity="0.07"/>
<path d="M382.316 464.45C395.316 451.697 415.942 453.088 428.38 467.576L462.718 507.57C475.156 522.057 474.686 544.143 461.686 556.896C448.685 569.648 428.059 568.257 415.621 553.77L381.284 513.775C368.845 499.287 369.316 477.202 382.316 464.45Z" fill="#F8F8F8" fill-opacity="0.07"/>
<path d="M476.33 437.989C483.338 431.115 492.955 427.282 502.577 427.676C512.192 428.06 521.451 432.665 527.83 440.095C534.37 447.712 537.701 457.771 537.244 468.054C536.331 488.581 518.349 506.221 499.119 505.453C489.513 505.04 480.423 500.631 473.883 493.015C467.504 485.584 464.005 475.329 464.452 465.075C464.909 454.793 469.306 444.878 476.33 437.989Z" fill="#F8F8F8" fill-opacity="0.07"/>
<path d="M420.537 373.001C405.644 387.61 383.723 388 371.596 373.875L354.234 353.653C342.107 339.528 344.349 316.216 359.241 301.607C374.133 287 396.054 286.609 408.181 300.734L425.543 320.956C437.67 335.081 435.428 358.393 420.537 373.001Z" fill="#F8F8F8" fill-opacity="0.07"/>
<path d="M312.372 329.526L307.421 334.383L317.689 346.342C330.55 361.321 329.704 384.538 315.803 398.175C301.902 411.811 280.189 410.723 267.328 395.744L233.765 356.651C220.905 341.672 221.746 318.45 235.648 304.814L265.779 275.257C279.68 261.62 301.397 262.713 314.257 277.693C327.119 292.673 326.273 315.89 312.372 329.526Z" fill="#F8F8F8" fill-opacity="0.07"/>
</svg>
