<svg width="575" height="763" viewBox="0 0 575 763" fill="none" xmlns="http://www.w3.org/2000/svg">
<path d="M46.6175 480.731L101.665 426.732C112.869 415.741 129.819 415.976 139.517 427.272L167.274 459.602C176.972 470.898 175.739 488.969 164.535 499.96C153.33 510.951 136.38 510.716 126.682 499.42L116.481 487.538L81.7298 521.628C70.5183 532.625 53.5762 532.385 43.878 521.089C34.1798 509.793 35.406 491.728 46.6175 480.731Z" fill="#F8F8F8" fill-opacity="0.07"/>
<path d="M286.775 620.463L221.513 684.482C210.312 695.469 192.91 694.673 182.633 682.703L122.735 612.936C112.458 600.966 113.206 582.365 124.406 571.378L189.669 507.359C200.863 496.378 218.271 497.169 228.548 509.139L288.446 578.905C298.723 590.875 297.969 609.483 286.775 620.463ZM206.601 570.586L181.89 594.826L204.581 621.255L229.292 597.015L206.601 570.586Z" fill="#F8F8F8" fill-opacity="0.07"/>
<path d="M499.089 412.194L433.807 476.232C422.619 487.208 405.215 486.414 394.938 474.444L335.039 404.676C324.762 392.706 325.512 374.103 336.701 363.128L401.983 299.09C413.172 288.114 430.576 288.909 440.853 300.879L500.752 370.646C511.028 382.616 510.278 401.219 499.089 412.194ZM418.926 362.306L394.174 386.587L416.865 413.016L441.617 388.736L418.926 362.306Z" fill="#F8F8F8" fill-opacity="0.07"/>
<path d="M91.9397 393.529L26.6773 457.549C15.477 468.535 -1.50397 468.23 -11.2473 456.882L-68.0772 390.689C-77.8206 379.34 -76.6495 361.231 -65.4491 350.244L-0.186728 286.225C11.0069 275.245 27.9927 275.543 37.7361 286.892L94.566 353.084C104.309 364.433 103.133 382.549 91.9397 393.529ZM14.834 347.226L-9.87676 371.466L11.6554 396.546L36.3662 372.306L14.834 347.226Z" fill="#F8F8F8" fill-opacity="0.07"/>
<path d="M304.254 185.26L238.972 249.299C227.784 260.274 210.801 259.971 201.058 248.622L144.231 182.433C134.487 171.084 135.657 152.97 146.845 141.995L166.729 122.49C177.917 111.516 194.901 111.821 204.644 123.17C214.284 134.398 213.242 152.209 202.409 163.229L223.941 188.308L248.692 164.028L247.681 162.851C237.938 151.503 239.11 133.39 250.299 122.416C261.487 111.441 278.469 111.744 288.213 123.092L306.872 144.825C316.615 156.173 315.442 174.286 304.254 185.26Z" fill="#F8F8F8" fill-opacity="0.07"/>
<path d="M373.315 264.436L322.457 314.325C311.594 324.982 295.118 324.703 285.662 313.689C276.206 302.676 277.357 285.106 288.221 274.449L339.079 224.56C349.943 213.903 366.419 214.182 375.875 225.196C385.331 236.209 384.179 253.779 373.315 264.436Z" fill="#F8F8F8" fill-opacity="0.07"/>
<path d="M368.322 499.065L345.556 521.397C334.24 532.498 316.424 531.446 305.767 519.033C295.109 506.62 295.655 487.557 306.972 476.456L309.24 474.231L289.308 451.014C278.65 438.6 279.196 419.537 290.512 408.436C301.828 397.336 319.644 398.388 330.301 410.801L369.526 456.488C380.183 468.901 379.638 487.965 368.322 499.065Z" fill="#F8F8F8" fill-opacity="0.07"/>
<path d="M239.45 458.527C244.295 453.774 251.23 451.427 258.337 452.253C265.318 452.905 272.368 456.844 277.426 462.736C282.611 468.775 285.679 476.62 285.821 484.264C286.125 499.549 273.441 511.718 259.457 510.126C252.356 509.308 245.305 505.37 240.12 499.331C235.062 493.439 231.995 485.593 231.973 478.115C231.824 470.463 234.471 463.411 239.45 458.527Z" fill="#F8F8F8" fill-opacity="0.07"/>
<path d="M161.64 367.899C171.937 357.797 188.275 358.899 198.128 370.375L225.327 402.055C235.18 413.531 234.807 431.025 224.51 441.127C214.212 451.228 197.874 450.126 188.021 438.651L160.822 406.97C150.969 395.494 151.342 378 161.64 367.899Z" fill="#F8F8F8" fill-opacity="0.07"/>
<path d="M236.11 346.938C241.661 341.493 249.279 338.458 256.901 338.77C264.517 339.074 271.851 342.722 276.904 348.607C282.084 354.641 284.722 362.609 284.361 370.754C283.637 387.014 269.394 400.986 254.161 400.378C246.553 400.051 239.352 396.559 234.172 390.525C229.119 384.64 226.347 376.517 226.701 368.394C227.063 360.25 230.546 352.396 236.11 346.938Z" fill="#F8F8F8" fill-opacity="0.07"/>
<path d="M191.915 295.461C180.119 307.032 162.754 307.342 153.148 296.153L139.396 280.135C129.789 268.946 131.565 250.48 143.362 238.908C155.158 227.337 172.522 227.028 182.128 238.217L195.88 254.235C205.487 265.424 203.711 283.89 191.915 295.461Z" fill="#F8F8F8" fill-opacity="0.07"/>
<path d="M106.236 261.024L102.314 264.871L110.448 274.344C120.635 286.209 119.965 304.6 108.954 315.402C97.9422 326.203 80.7429 325.341 70.5559 313.476L43.9702 282.51C33.7831 270.645 34.4497 252.25 45.4612 241.449L69.3286 218.036C80.3401 207.234 97.5424 208.1 107.729 219.965C117.917 231.831 117.248 250.222 106.236 261.024Z" fill="#F8F8F8" fill-opacity="0.07"/>
</svg>
