<svg width="93" height="79" viewBox="0 0 93 79" fill="none" xmlns="http://www.w3.org/2000/svg">
<path d="M70.7851 54.113L68.7013 54.6555C68.277 54.766 67.8443 54.508 67.735 54.0793L67.4219 52.8516C67.3122 52.4229 67.5679 51.9856 67.9921 51.8752C68.4164 51.7647 68.8491 52.0227 68.9584 52.4514L69.0737 52.9025L70.389 52.5599C70.8136 52.4495 71.246 52.7075 71.3553 53.1365C71.465 53.5652 71.2097 54.0025 70.7851 54.113Z" fill="white"/>
<path d="M66.3949 47.2408L68.8681 46.5968C69.2924 46.4864 69.7252 46.7444 69.8345 47.173L70.4718 49.673C70.5814 50.1017 70.3261 50.539 69.9015 50.6494L67.4283 51.2934C67.0041 51.4038 66.5713 51.1459 66.462 50.7172L65.8247 48.2173C65.715 47.7882 65.9707 47.3513 66.3949 47.2408ZM67.8007 49.5404L68.7374 49.2967L68.4958 48.3498L67.5591 48.5935L67.8007 49.5404Z" fill="white"/>
<path d="M58.1481 49.388L60.6232 48.7433C61.0474 48.6329 61.4802 48.8908 61.5895 49.3199L62.2268 51.8195C62.3364 52.2485 62.0808 52.6854 61.6565 52.7959L59.1815 53.4406C58.7572 53.5511 58.3245 53.2931 58.2152 52.8644L57.5775 50.3645C57.4682 49.9354 57.7239 49.4985 58.1481 49.388ZM59.5538 51.6877L60.4924 51.4432L60.2508 50.4963L59.3123 50.7408L59.5538 51.6877Z" fill="white"/>
<path d="M68.4856 55.442L70.9588 54.798C71.3834 54.6875 71.8158 54.9459 71.9251 55.3742L72.5628 57.8745C72.6721 58.3032 72.4168 58.7405 71.9926 58.8509L69.5194 59.4949C69.0951 59.6054 68.6624 59.3474 68.5531 58.9187L67.9154 56.4184C67.8061 55.9897 68.0617 55.5524 68.4856 55.442ZM69.8917 57.7419L70.828 57.4982L70.5865 56.551L69.6502 56.7947L69.8917 57.7419Z" fill="white"/>
<path d="M60.2386 57.5888L62.7136 56.9445C63.1379 56.834 63.5706 57.092 63.6799 57.5207L64.3176 60.021C64.4269 60.4497 64.1716 60.887 63.7474 60.9975L62.9934 61.1936C62.5691 61.3041 62.1364 61.0461 62.0271 60.6174C61.9189 60.1932 62.1675 59.7615 62.5828 59.6447L62.3413 58.6975L61.4031 58.9416L61.4142 58.9861C61.5235 59.4148 61.2682 59.8521 60.844 59.9626C60.4198 60.073 59.987 59.8151 59.8777 59.3864L59.6683 58.5657C59.559 58.137 59.8143 57.6993 60.2386 57.5888Z" fill="white"/>
<path d="M59.512 54.7379L61.498 54.2209C61.9222 54.1104 62.355 54.3684 62.4643 54.7971C62.5736 55.2261 62.3183 55.6631 61.8941 55.7735L59.9081 56.291C59.4839 56.4014 59.0511 56.1434 58.9418 55.7144C58.8325 55.2857 59.0878 54.8484 59.512 54.7379Z" fill="white"/>
<path d="M62.7719 49.1665L63.6252 48.9445C64.0494 48.834 64.4822 49.092 64.5915 49.5207C64.7012 49.9498 64.4455 50.3867 64.0213 50.4972L63.9361 50.5192L64.141 51.3216C64.2503 51.7503 63.9946 52.1876 63.5704 52.2981C63.1461 52.4085 62.7134 52.1505 62.6041 51.7218L62.2017 50.143C62.092 49.7143 62.3477 49.277 62.7719 49.1665Z" fill="white"/>
<path d="M65.5119 51.79C65.3122 51.8417 65.091 51.811 64.9109 51.7032C64.732 51.601 64.5982 51.4205 64.5467 51.2187C64.4941 51.0116 64.5245 50.7881 64.6312 50.6062C64.8439 50.2415 65.3626 50.112 65.7172 50.3235C65.8973 50.4309 66.0306 50.6114 66.0836 50.8185C66.1351 51.0203 66.1044 51.2438 65.9969 51.4205C65.8906 51.6028 65.7168 51.7365 65.5119 51.79Z" fill="white"/>
<path d="M66.3912 55.2351C65.967 55.3456 65.5342 55.0876 65.4249 54.6586L65.1229 53.4747C65.0136 53.0456 65.2689 52.6087 65.6932 52.4982C66.1174 52.3878 66.5502 52.6454 66.6595 53.0744L66.9614 54.2583C67.0711 54.6874 66.8155 55.1243 66.3912 55.2351Z" fill="white"/>
<path d="M64.1469 54.5571C63.9476 54.6091 63.7268 54.5784 63.5463 54.4706C63.3659 54.3631 63.2321 54.1827 63.1806 53.9809C63.128 53.7738 63.1599 53.5555 63.2666 53.3732C63.4793 53.0089 63.9913 52.8756 64.3526 53.0905C64.5327 53.1984 64.6646 53.3736 64.7175 53.5806C64.769 53.7824 64.7383 54.006 64.6323 54.1879C64.5256 54.3703 64.347 54.505 64.1469 54.5571Z" fill="white"/>
<path d="M64.6277 56.4464C65.052 56.336 65.4847 56.594 65.594 57.0227L65.7508 57.6363C65.8601 58.065 65.6044 58.5023 65.1802 58.6128C64.7563 58.7232 64.3232 58.4652 64.2139 58.0365L64.0575 57.4229C63.9482 56.9942 64.2035 56.5569 64.6277 56.4464Z" fill="white"/>
<path d="M66.4925 58.6267L66.6436 58.5874L66.5562 58.2452C66.4469 57.8165 66.7026 57.3792 67.1264 57.2687C67.5507 57.1583 67.9838 57.4162 68.0931 57.8449L68.378 58.9636C68.4873 59.3923 68.2321 59.8297 67.8078 59.9401L66.8886 60.1794C66.4643 60.2898 66.0316 60.0318 65.9223 59.6031C65.8129 59.1744 66.0682 58.7371 66.4925 58.6267Z" fill="white"/>
<path d="M53.6149 57.1016C51.9976 50.7598 55.7531 44.2747 61.996 42.5779L60.8151 37.9476C60.2946 35.905 61.5154 33.815 63.537 33.2886L78.4329 29.4096C80.4545 28.8832 82.5231 30.1167 83.044 32.1593L91.7615 66.3442C92.2829 68.3873 91.062 70.4776 89.0405 71.0041L74.1442 74.8829C72.1226 75.4093 70.054 74.1757 69.5331 72.1325L67.8987 65.7242C61.6218 67.287 55.2322 63.4437 53.6149 57.1016ZM73.7481 73.3303L88.6444 69.4514C89.8186 69.1455 90.5277 67.9313 90.225 66.7444L81.5071 32.5594C81.2048 31.3731 80.0032 30.6566 78.829 30.9624L63.9327 34.8414C62.7589 35.1471 62.0493 36.3611 62.3521 37.5474L63.5551 42.2657C69.3878 41.5004 75.0227 45.2362 76.5273 51.1354C77.3021 54.1744 76.8864 57.3094 75.3587 60.0208L77.8834 63.9315C78.055 64.1973 78.0553 64.5403 77.8849 64.8061C77.7745 64.9784 77.6059 65.097 77.4166 65.1465C77.3136 65.1734 77.2039 65.179 77.0946 65.1618L71.3701 64.2419C70.7498 64.635 70.0929 64.9608 69.4119 65.2315L71.07 71.7323C71.3723 72.9192 72.5743 73.6362 73.7481 73.3303ZM67.626 64.1423C68.7468 63.8506 69.7995 63.377 70.7554 62.7342C70.9214 62.6226 71.1226 62.5791 71.3193 62.6099L75.577 63.2939L73.7592 60.4776C73.5902 60.2159 73.5869 59.8789 73.751 59.6142C75.2583 57.1806 75.6985 54.3122 74.9904 51.5356C73.581 46.0086 67.9839 42.6712 62.514 44.0954C57.0448 45.5196 53.742 51.1747 55.1514 56.7017C56.5609 62.2283 62.1572 65.5665 67.626 64.1423Z" fill="black"/>
<path d="M78.9821 66.5462L80.8172 66.0685C81.8058 65.8109 82.8165 66.4114 83.0704 67.4066C83.3245 68.4025 82.7265 69.4216 81.738 69.6789L79.9028 70.157C78.9143 70.4142 77.9035 69.814 77.6497 68.8181C77.3959 67.8229 77.9935 66.8038 78.9821 66.5462ZM79.5067 68.6039L81.3423 68.1262C81.4808 68.0899 81.5686 67.9439 81.5338 67.8068C81.499 67.6702 81.3523 67.5852 81.2133 67.6211L79.3781 68.0992C79.2392 68.1352 79.1514 68.2816 79.1862 68.4179C79.221 68.5549 79.3681 68.6403 79.5067 68.6039Z" fill="black"/>
<path d="M8.59878 25.7835C7.03371 25.7835 5.50421 25.472 4.01029 24.849C2.54007 24.226 1.30699 23.4592 0.311035 22.5486L2.48079 20.5358C3.35817 21.2547 4.34227 21.8298 5.43307 22.2611C6.52388 22.6684 7.5554 22.8721 8.52764 22.8721C9.49988 22.8721 10.3891 22.6804 11.1954 22.297C12.0253 21.9136 12.6893 21.3865 13.1873 20.7155C13.6852 20.0206 13.9461 19.2179 13.9698 18.3073C13.9935 17.1572 13.5904 16.2346 12.7604 15.5397C11.9305 14.8448 10.65 14.2817 8.91891 13.8504C7.23527 13.4191 5.76506 12.8919 4.50826 12.2689C3.25147 11.6219 2.29108 10.8072 1.62711 9.82476C0.963147 8.84232 0.690446 7.62025 0.809011 6.15856C0.975003 4.21764 1.76939 2.73199 3.19218 1.70162C4.63868 0.647285 6.53574 0.120117 8.88334 0.120117C10.0216 0.120117 11.2191 0.26389 12.4759 0.551436C13.7564 0.815019 14.9539 1.2703 16.0684 1.91728L14.1832 4.21764C13.3533 3.8582 12.4996 3.57066 11.6222 3.355C10.7448 3.11538 9.85558 2.98359 8.95448 2.95963C8.07709 2.95963 7.23527 3.07944 6.42903 3.31905C5.64649 3.53471 5.00624 3.90613 4.50826 4.43329C4.01029 4.9365 3.74944 5.61942 3.72573 6.48205C3.72573 7.36865 3.96286 8.08751 4.43712 8.63864C4.91139 9.16581 5.55164 9.59712 6.35789 9.93259C7.16413 10.2681 8.06523 10.5796 9.06119 10.8671C10.7448 11.3224 12.1558 11.8256 13.294 12.3767C14.4559 12.9279 15.3333 13.6587 15.9261 14.5693C16.519 15.4798 16.8154 16.7258 16.8154 18.3073C16.8154 19.7211 16.436 20.9911 15.6772 22.1173C14.942 23.2435 13.9461 24.1421 12.6893 24.813C11.4562 25.46 10.0927 25.7835 8.59878 25.7835ZM33.4601 25.46H20.0147V0.299832H33.4601V2.88774H22.8247V11.9095H31.4326V14.3536H22.8247V22.8721H33.4601V25.46ZM48.3202 25.46H36.7244V0.299832H39.5344V22.7283H48.3202V25.46ZM64.859 3.03151H54.3303V11.8016H62.8315V14.3895H54.3303V25.46H51.5203V0.299832H64.859V3.03151Z" fill="white"/>
<path d="M0.666992 59.9053L0.702562 34.7451H10.1997C11.409 34.7451 12.488 35.0926 13.4365 35.7875C14.385 36.4584 15.132 37.357 15.6774 38.4832C16.2228 39.5855 16.4955 40.7716 16.4955 42.0416C16.4955 42.9282 16.3177 43.8028 15.962 44.6654C15.63 45.5041 15.1676 46.2829 14.5748 47.0017C14.0056 47.6966 13.3298 48.2597 12.5473 48.6911C11.7885 49.0984 10.9704 49.3021 10.093 49.3021H3.477V59.9053H0.666992ZM3.477 46.5345H10.0218C10.6858 46.5345 11.2905 46.3188 11.8359 45.8875C12.405 45.4322 12.8555 44.8571 13.1875 44.1622C13.5432 43.4673 13.7211 42.7604 13.7211 42.0416C13.7211 41.2269 13.5551 40.484 13.2231 39.8131C12.9148 39.1182 12.488 38.5671 11.9426 38.1597C11.3972 37.7524 10.7925 37.5487 10.1285 37.5487H3.477V46.5345ZM15.4215 59.9053L23.7448 34.7451H27.3374L35.6962 59.9053H32.6728L30.5742 53.5074H20.508L18.4094 59.9053H15.4215ZM25.5589 38.1957L21.2905 51.0992H29.7917L25.5589 38.1957ZM52.4936 34.7451L44.0991 51.4227V59.9053H41.2535V51.4227L32.859 34.7451H35.8113L42.6763 48.4754L49.5413 34.7451H52.4936Z" fill="black"/>
</svg>
